<svg width="22" height="22" viewBox="0 0 22 22" fill="none" xmlns="http://www.w3.org/2000/svg">
<path d="M10.5406 10.3904C10.4739 10.3904 10.4078 10.3757 10.3425 10.3469L0.30508 5.85519C0.116053 5.77087 -0.00410875 5.57762 0.000107464 5.36189C0.00432367 5.14898 0.134323 4.95573 0.32335 4.88195L10.3621 0.889901C10.4198 0.867415 10.4795 0.855469 10.5406 0.855469C10.6011 0.855469 10.6615 0.867415 10.7191 0.889901L20.7572 4.88054C20.9505 4.95784 21.0769 5.14616 21.0812 5.36049C21.0868 5.57692 20.9666 5.77087 20.7762 5.85519L10.7381 10.349C10.6756 10.3764 10.6081 10.3904 10.5406 10.3904ZM1.8454 5.40054L10.516 9.28086L19.2359 5.40054L10.5406 1.94395L1.8454 5.40054Z" fill="white"/>
<path d="M0.305053 9.63234C0.0513778 9.5178 -0.0673787 9.20791 0.0408373 8.94159C0.120243 8.74834 0.302242 8.62256 0.503918 8.62256C0.57208 8.62256 0.638134 8.63732 0.70208 8.66613L10.5167 13.0573L20.3805 8.66613C20.4452 8.63661 20.5112 8.62256 20.5794 8.62256C20.7804 8.62256 20.9617 8.74694 21.0404 8.94159C21.1493 9.20791 21.0305 9.5178 20.7762 9.63234L10.5406 14.2126L0.305053 9.63234Z" fill="white"/>
<path d="M0.304657 13.1387C0.0502786 13.0235 -0.0684779 12.7143 0.0404408 12.4494C0.119846 12.2562 0.301846 12.1304 0.503521 12.1304C0.571683 12.1304 0.637737 12.1451 0.701683 12.1732L10.5163 16.5651L20.3801 12.1732C20.4434 12.1458 20.5108 12.1304 20.579 12.1304C20.78 12.1304 20.9613 12.2562 21.04 12.4494C21.1489 12.715 21.0301 13.0249 20.7765 13.1387L10.5402 17.7204L0.304657 13.1387Z" fill="white"/>
<path d="M0.473297 16.7049C0.218919 16.5897 0.100162 16.2805 0.209081 16.0156C0.288486 15.8223 0.470486 15.6965 0.672161 15.6965C0.740323 15.6965 0.806377 15.7113 0.870323 15.7394L10.685 20.1313L20.5488 15.7394C20.612 15.712 20.6795 15.6965 20.7476 15.6965C20.9486 15.6965 21.1299 15.8223 21.2086 16.0156C21.3175 16.2812 21.1988 16.5911 20.9451 16.7049L10.7088 21.2865L0.473297 16.7049Z" fill="white"/>
</svg>
