<svg width="33" height="31" viewBox="0 0 33 31" fill="none" xmlns="http://www.w3.org/2000/svg">
<g id="Group">
<path id="Vector" d="M16.3752 14.1344C16.2762 14.1344 16.1783 14.1125 16.0814 14.0698L1.20224 7.41146C0.922034 7.28646 0.743909 7 0.750159 6.68021C0.756409 6.36458 0.949118 6.07812 1.22933 5.96875L16.1106 0.0510414C16.196 0.0177081 16.2845 0 16.3752 0C16.4647 0 16.5543 0.0177081 16.6397 0.0510414L31.5199 5.96667C31.8064 6.08125 31.9939 6.36042 32.0002 6.67812C32.0085 6.99896 31.8304 7.28646 31.5481 7.41146L16.6679 14.0729C16.5752 14.1135 16.4752 14.1344 16.3752 14.1344ZM3.48558 6.7375L16.3387 12.4896L29.2647 6.7375L16.3752 1.61354L3.48558 6.7375Z" fill="white"/>
<path id="Vector_2" d="M1.20298 13.0104C0.826938 12.8406 0.650896 12.3813 0.811313 11.9865C0.929021 11.7 1.19881 11.5135 1.49777 11.5135C1.59881 11.5135 1.69673 11.5354 1.79152 11.5781L16.3405 18.0875L30.9623 11.5781C31.0582 11.5344 31.1561 11.5135 31.2571 11.5135C31.5551 11.5135 31.8238 11.6979 31.9405 11.9865C32.1019 12.3813 31.9259 12.8406 31.5488 13.0104L16.3759 19.8L1.20298 13.0104Z" fill="white"/>
<path id="Vector_3" d="M1.20162 18.2084C0.824532 18.0375 0.64849 17.5792 0.809948 17.1865C0.927657 16.9 1.19745 16.7136 1.49641 16.7136C1.59745 16.7136 1.69537 16.7354 1.79016 16.7771L16.3391 23.2875L30.961 16.7771C31.0547 16.7365 31.1547 16.7136 31.2558 16.7136C31.5537 16.7136 31.8224 16.9 31.9391 17.1865C32.1006 17.5802 31.9245 18.0396 31.5485 18.2084L16.3745 25L1.20162 18.2084Z" fill="white"/>
<path id="Vector_4" d="M1.45162 23.4948C1.07453 23.324 0.89849 22.8656 1.05995 22.4729C1.17766 22.1865 1.44745 22 1.74641 22C1.84745 22 1.94537 22.0219 2.04016 22.0635L16.5891 28.574L31.211 22.0635C31.3047 22.0229 31.4047 22 31.5058 22C31.8037 22 32.0724 22.1865 32.1891 22.4729C32.3506 22.8667 32.1745 23.326 31.7985 23.4948L16.6245 30.2865L1.45162 23.4948Z" fill="white"/>
</g>
</svg>
