<svg width="22" height="22" viewBox="0 0 22 22" fill="none" xmlns="http://www.w3.org/2000/svg">
<path d="M10.5406 10.3904C10.4739 10.3904 10.4078 10.3756 10.3425 10.3468L0.30508 5.85513C0.116053 5.7708 -0.00410875 5.57756 0.000107464 5.36183C0.00432367 5.14891 0.134323 4.95567 0.32335 4.88189L10.3621 0.88984C10.4198 0.867353 10.4795 0.855408 10.5406 0.855408C10.6011 0.855408 10.6615 0.867353 10.7191 0.88984L20.7572 4.88048C20.9505 4.95778 21.0769 5.1461 21.0812 5.36043C21.0868 5.57686 20.9666 5.7708 20.7762 5.85513L10.7381 10.3489C10.6756 10.3763 10.6081 10.3904 10.5406 10.3904ZM1.8454 5.40048L10.516 9.2808L19.2359 5.40048L10.5406 1.94389L1.8454 5.40048Z" fill="black"/>
<path d="M0.305053 9.63216C0.0513778 9.51762 -0.0673787 9.20773 0.0408373 8.9414C0.120243 8.74816 0.302242 8.62238 0.503918 8.62238C0.57208 8.62238 0.638134 8.63713 0.70208 8.66594L10.5167 13.0571L20.3805 8.66594C20.4452 8.63643 20.5112 8.62238 20.5794 8.62238C20.7804 8.62238 20.9617 8.74675 21.0404 8.9414C21.1493 9.20773 21.0305 9.51762 20.7762 9.63216L10.5406 14.2124L0.305053 9.63216Z" fill="black"/>
<path d="M0.304657 13.1387C0.0502786 13.0234 -0.0684779 12.7142 0.0404408 12.4493C0.119846 12.2561 0.301846 12.1303 0.503521 12.1303C0.571683 12.1303 0.637737 12.145 0.701683 12.1731L10.5163 16.565L20.3801 12.1731C20.4434 12.1457 20.5108 12.1303 20.579 12.1303C20.78 12.1303 20.9613 12.2561 21.04 12.4493C21.1489 12.7149 21.0301 13.0248 20.7765 13.1387L10.5402 17.7203L0.304657 13.1387Z" fill="black"/>
<path d="M0.473297 16.7048C0.218919 16.5896 0.100162 16.2804 0.209081 16.0155C0.288486 15.8223 0.470486 15.6965 0.672161 15.6965C0.740323 15.6965 0.806377 15.7112 0.870323 15.7393L10.685 20.1312L20.5488 15.7393C20.612 15.7119 20.6795 15.6965 20.7476 15.6965C20.9486 15.6965 21.1299 15.8223 21.2086 16.0155C21.3175 16.2811 21.1988 16.591 20.9451 16.7048L10.7088 21.2865L0.473297 16.7048Z" fill="black"/>
</svg>
