<svg width="259" height="160" viewBox="0 0 259 160" fill="none" xmlns="http://www.w3.org/2000/svg">
<g clip-path="url(#clip0_309_25)">
<g opacity="0.8" clip-path="url(#clip1_309_25)">
<path opacity="0.75" d="M61.7426 100.61H62.2426V100.11V65.6451C62.2426 47.7363 69.853 31.4474 82.1219 19.6433L82.8151 19.0347L82.8212 19.0294L82.827 19.0239C95.046 7.5789 111.704 0.5 129.996 0.5C148.287 0.5 165.543 7.83362 177.825 19.6356L177.97 19.775H178.007C190.196 31.5685 197.749 47.8028 197.749 65.6451V100.11V100.61H198.249H208.836C214.168 100.61 218.5 104.804 218.5 109.886V213.235C218.5 218.316 214.169 222.503 208.836 222.503H51.164C45.8314 222.503 41.5 218.316 41.5 213.235V109.886C41.5 104.804 45.8319 100.61 51.164 100.61H61.7426ZM84.9649 100.471L85.1099 100.61H85.3106H174.684H175.184V100.11V65.6451C175.184 53.8607 170.24 43.1347 162.249 35.2797L162.273 35.2543L161.919 34.9146C153.721 27.0513 142.424 22.1674 129.996 22.1674C117.569 22.1674 106.758 26.8483 98.6135 34.4157L98.6052 34.4234L98.5973 34.4315L98.0972 34.9403C89.9029 42.824 84.808 53.6885 84.808 65.6425V100.108V100.321L84.9622 100.469L84.9649 100.471Z" fill="url(#paint0_linear_309_25)" stroke="url(#paint1_linear_309_25)"/>
</g>
<path d="M155 140L130.5 123L105 140" stroke="white" stroke-width="2" stroke-linecap="round" stroke-linejoin="round"/>
<g filter="url(#filter0_d_309_25)">
<path d="M20.712 75L30.696 52.6H35.816L45.832 75H40.392L32.2 55.224H34.248L26.024 75H20.712ZM25.704 70.2L27.08 66.264H38.6L40.008 70.2H25.704ZM48.156 75V52.6H57.852C59.8573 52.6 61.5853 52.9307 63.036 53.592C64.4867 54.232 65.6067 55.16 66.396 56.376C67.1853 57.592 67.58 59.0427 67.58 60.728C67.58 62.392 67.1853 63.832 66.396 65.048C65.6067 66.264 64.4867 67.2027 63.036 67.864C61.5853 68.504 59.8573 68.824 57.852 68.824H51.036L53.34 66.488V75H48.156ZM53.34 67.064L51.036 64.6H57.564C59.164 64.6 60.3587 64.2587 61.148 63.576C61.9373 62.8933 62.332 61.944 62.332 60.728C62.332 59.4907 61.9373 58.5307 61.148 57.848C60.3587 57.1653 59.164 56.824 57.564 56.824H51.036L53.34 54.36V67.064ZM71.281 75V52.6H80.977C82.9823 52.6 84.7103 52.9307 86.161 53.592C87.6117 54.232 88.7317 55.16 89.521 56.376C90.3103 57.592 90.705 59.0427 90.705 60.728C90.705 62.392 90.3103 63.832 89.521 65.048C88.7317 66.264 87.6117 67.2027 86.161 67.864C84.7103 68.504 82.9823 68.824 80.977 68.824H74.161L76.465 66.488V75H71.281ZM76.465 67.064L74.161 64.6H80.689C82.289 64.6 83.4837 64.2587 84.273 63.576C85.0623 62.8933 85.457 61.944 85.457 60.728C85.457 59.4907 85.0623 58.5307 84.273 57.848C83.4837 57.1653 82.289 56.824 80.689 56.824H74.161L76.465 54.36V67.064ZM103.781 75V52.6H108.965V70.776H120.197V75H103.781ZM133.599 75.384C131.828 75.384 130.185 75.096 128.671 74.52C127.177 73.944 125.876 73.1333 124.766 72.088C123.679 71.0427 122.825 69.816 122.207 68.408C121.609 67 121.311 65.464 121.311 63.8C121.311 62.136 121.609 60.6 122.207 59.192C122.825 57.784 123.689 56.5573 124.799 55.512C125.908 54.4667 127.209 53.656 128.703 53.08C130.196 52.504 131.817 52.216 133.567 52.216C135.337 52.216 136.958 52.504 138.431 53.08C139.924 53.656 141.215 54.4667 142.303 55.512C143.412 56.5573 144.276 57.784 144.895 59.192C145.513 60.5787 145.823 62.1147 145.823 63.8C145.823 65.464 145.513 67.0107 144.895 68.44C144.276 69.848 143.412 71.0747 142.303 72.12C141.215 73.144 139.924 73.944 138.431 74.52C136.958 75.096 135.348 75.384 133.599 75.384ZM133.567 70.968C134.569 70.968 135.487 70.7973 136.319 70.456C137.172 70.1147 137.919 69.624 138.559 68.984C139.199 68.344 139.689 67.5867 140.031 66.712C140.393 65.8373 140.575 64.8667 140.575 63.8C140.575 62.7333 140.393 61.7627 140.031 60.888C139.689 60.0133 139.199 59.256 138.559 58.616C137.94 57.976 137.204 57.4853 136.351 57.144C135.497 56.8027 134.569 56.632 133.567 56.632C132.564 56.632 131.636 56.8027 130.783 57.144C129.951 57.4853 129.215 57.976 128.575 58.616C127.935 59.256 127.433 60.0133 127.071 60.888C126.729 61.7627 126.559 62.7333 126.559 63.8C126.559 64.8453 126.729 65.816 127.071 66.712C127.433 67.5867 127.924 68.344 128.543 68.984C129.183 69.624 129.929 70.1147 130.783 70.456C131.636 70.7973 132.564 70.968 133.567 70.968ZM160.439 75.384C158.711 75.384 157.1 75.1067 155.607 74.552C154.135 73.976 152.855 73.1653 151.766 72.12C150.679 71.0747 149.825 69.848 149.207 68.44C148.609 67.032 148.311 65.4853 148.311 63.8C148.311 62.1147 148.609 60.568 149.207 59.16C149.825 57.752 150.679 56.5253 151.766 55.48C152.876 54.4347 154.167 53.6347 155.639 53.08C157.111 52.504 158.721 52.216 160.471 52.216C162.412 52.216 164.161 52.5573 165.719 53.24C167.297 53.9013 168.62 54.8827 169.687 56.184L166.359 59.256C165.591 58.3813 164.737 57.7307 163.799 57.304C162.86 56.856 161.836 56.632 160.727 56.632C159.681 56.632 158.721 56.8027 157.847 57.144C156.972 57.4853 156.215 57.976 155.575 58.616C154.935 59.256 154.433 60.0133 154.071 60.888C153.729 61.7627 153.559 62.7333 153.559 63.8C153.559 64.8667 153.729 65.8373 154.071 66.712C154.433 67.5867 154.935 68.344 155.575 68.984C156.215 69.624 156.972 70.1147 157.847 70.456C158.721 70.7973 159.681 70.968 160.727 70.968C161.836 70.968 162.86 70.7547 163.799 70.328C164.737 69.88 165.591 69.208 166.359 68.312L169.687 71.384C168.62 72.6853 167.297 73.6773 165.719 74.36C164.161 75.0427 162.401 75.384 160.439 75.384ZM177.827 69.88L177.539 63.896L188.259 52.6H194.019L184.355 63L181.475 66.072L177.827 69.88ZM173.187 75V52.6H178.339V75H173.187ZM188.515 75L180.547 65.24L183.939 61.56L194.563 75H188.515ZM201.643 61.624H212.427V65.656H201.643V61.624ZM202.027 70.84H214.219V75H196.875V52.6H213.803V56.76H202.027V70.84ZM218.344 75V52.6H228.04C230.045 52.6 231.773 52.9307 233.224 53.592C234.674 54.232 235.794 55.16 236.584 56.376C237.373 57.592 237.768 59.0427 237.768 60.728C237.768 62.392 237.373 63.832 236.584 65.048C235.794 66.2427 234.674 67.16 233.224 67.8C231.773 68.44 230.045 68.76 228.04 68.76H221.224L223.528 66.488V75H218.344ZM232.583 75L226.984 66.872H232.52L238.184 75H232.583ZM223.528 67.064L221.224 64.632H227.752C229.352 64.632 230.546 64.2907 231.336 63.608C232.125 62.904 232.52 61.944 232.52 60.728C232.52 59.4907 232.125 58.5307 231.336 57.848C230.546 57.1653 229.352 56.824 227.752 56.824H221.224L223.528 54.36V67.064Z" fill="white"/>
</g>
</g>
<defs>
<filter id="filter0_d_309_25" x="0.711914" y="52.2168" width="257.472" height="63.168" filterUnits="userSpaceOnUse" color-interpolation-filters="sRGB">
<feFlood flood-opacity="0" result="BackgroundImageFix"/>
<feColorMatrix in="SourceAlpha" type="matrix" values="0 0 0 0 0 0 0 0 0 0 0 0 0 0 0 0 0 0 127 0" result="hardAlpha"/>
<feOffset dy="20"/>
<feGaussianBlur stdDeviation="10"/>
<feComposite in2="hardAlpha" operator="out"/>
<feColorMatrix type="matrix" values="0 0 0 0 0 0 0 0 0 0 0 0 0 0 0 0 0 0 0.25 0"/>
<feBlend mode="normal" in2="BackgroundImageFix" result="effect1_dropShadow_309_25"/>
<feBlend mode="normal" in="SourceGraphic" in2="effect1_dropShadow_309_25" result="shape"/>
</filter>
<linearGradient id="paint0_linear_309_25" x1="130" y1="0" x2="130" y2="223.003" gradientUnits="userSpaceOnUse">
<stop stop-opacity="0"/>
<stop offset="1" stop-color="white" stop-opacity="0.25"/>
</linearGradient>
<linearGradient id="paint1_linear_309_25" x1="130" y1="0" x2="130" y2="223.003" gradientUnits="userSpaceOnUse">
<stop stop-color="white" stop-opacity="0.5"/>
<stop offset="0.19249" stop-color="white"/>
<stop offset="0.266361" stop-color="white" stop-opacity="0"/>
<stop offset="0.336329" stop-color="white" stop-opacity="0"/>
<stop offset="0.401727" stop-color="white"/>
<stop offset="0.534" stop-color="white" stop-opacity="0.5"/>
<stop offset="1" stop-color="white" stop-opacity="0"/>
</linearGradient>
<clipPath id="clip0_309_25">
<rect width="259" height="160" fill="white"/>
</clipPath>
<clipPath id="clip1_309_25">
<rect width="178" height="223" fill="white" transform="translate(41)"/>
</clipPath>
</defs>
</svg>
