<svg width="27" height="27" viewBox="0 0 27 27" fill="none" xmlns="http://www.w3.org/2000/svg">
<g id="Group 39">
<path id="Vector" d="M13.47 6.76425C15.0618 6.76425 16.3521 5.47388 16.3521 3.88213C16.3521 2.29037 15.0618 1 13.47 1C11.8783 1 10.5879 2.29037 10.5879 3.88213C10.5879 5.47388 11.8783 6.76425 13.47 6.76425Z" stroke="white"/>
<path id="Vector_2" d="M22.9329 16.7527C24.5247 16.7527 25.815 15.4623 25.815 13.8705C25.815 12.2788 24.5247 10.9884 22.9329 10.9884C21.3412 10.9884 20.0508 12.2788 20.0508 13.8705C20.0508 15.4623 21.3412 16.7527 22.9329 16.7527Z" stroke="white"/>
<path id="Vector_3" d="M13.47 26.1468C15.0618 26.1468 16.3521 24.8564 16.3521 23.2647C16.3521 21.6729 15.0618 20.3826 13.47 20.3826C11.8783 20.3826 10.5879 21.6729 10.5879 23.2647C10.5879 24.8564 11.8783 26.1468 13.47 26.1468Z" stroke="white"/>
<path id="Vector_4" d="M3.88213 21.9177C5.47388 21.9177 6.76425 20.6273 6.76425 19.0356C6.76425 17.4438 5.47388 16.1534 3.88213 16.1534C2.29037 16.1534 1 17.4438 1 19.0356C1 20.6273 2.29037 21.9177 3.88213 21.9177Z" stroke="white"/>
<path id="Vector_5" d="M3.88213 10.6467C5.47388 10.6467 6.76425 9.35633 6.76425 7.76457C6.76425 6.17282 5.47388 4.88245 3.88213 4.88245C2.29037 4.88245 1 6.17282 1 7.76457C1 9.35633 2.29037 10.6467 3.88213 10.6467Z" stroke="white"/>
<path id="Vector_6" d="M13.4642 15.0442C14.7496 15.0442 15.7917 14.0021 15.7917 12.7167C15.7917 11.4313 14.7496 10.3892 13.4642 10.3892C12.1788 10.3892 11.1367 11.4313 11.1367 12.7167C11.1367 14.0021 12.1788 15.0442 13.4642 15.0442Z" stroke="white"/>
<path id="Vector_7" d="M6.36328 6.2938L10.6865 4.62494" stroke="white"/>
<path id="Vector_8" d="M15.4902 5.9422L20.8781 11.8501" stroke="white"/>
<path id="Vector_9" d="M21.1708 16.1485L15.5254 21.2442" stroke="white"/>
<path id="Vector_10" d="M5.4668 10.1713L11.6817 21.0065" stroke="white"/>
<path id="Vector_11" d="M6.43164 20.3776L10.5865 22.3039" stroke="white"/>
<path id="Vector_12" d="M4.96094 16.3614L11.9087 6.30371" stroke="white"/>
<path id="Vector_13" d="M6.53711 8.89368L11.4001 11.6421" stroke="white"/>
<path id="Vector_14" d="M15.7969 12.9791L20.0507 13.301" stroke="white"/>
<path id="Vector_15" d="M13.4648 15.0491L13.4698 20.3776" stroke="white"/>
</g>
</svg>
