<svg width="17" height="17" viewBox="0 0 17 17" fill="none" xmlns="http://www.w3.org/2000/svg">
<path d="M8.5 15.7961L8.5 14.9628M8.5 1.62948L8.5 0.796142M15.1667 8.29614L16 8.29614M13.2382 13.0344L13.9167 13.7128M3.76175 13.0344L3.08333 13.7128M13.2382 3.55448L13.9167 2.87939M3.76175 3.55447L3.08333 2.87939M1 8.29614L1.83333 8.29614M5.16667 8.29614C5.16667 6.45523 6.65908 4.96281 8.5 4.96281C10.341 4.96281 11.8333 6.45523 11.8333 8.29614C11.8333 10.1371 10.341 11.6295 8.5 11.6295C6.65908 11.6295 5.16667 10.1371 5.16667 8.29614Z" stroke="currentColor" stroke-linecap="round" stroke-linejoin="round"/>
</svg>
