<svg width="27" height="27" viewBox="0 0 27 27" fill="none" xmlns="http://www.w3.org/2000/svg">
<g id="Group 39">
<path id="Vector" d="M13.47 6.76425C15.0618 6.76425 16.3521 5.47388 16.3521 3.88213C16.3521 2.29037 15.0618 1 13.47 1C11.8783 1 10.5879 2.29037 10.5879 3.88213C10.5879 5.47388 11.8783 6.76425 13.47 6.76425Z" stroke="black"/>
<path id="Vector_2" d="M22.9329 16.7525C24.5247 16.7525 25.815 15.4622 25.815 13.8704C25.815 12.2787 24.5247 10.9883 22.9329 10.9883C21.3412 10.9883 20.0508 12.2787 20.0508 13.8704C20.0508 15.4622 21.3412 16.7525 22.9329 16.7525Z" stroke="black"/>
<path id="Vector_3" d="M13.47 26.1466C15.0618 26.1466 16.3521 24.8562 16.3521 23.2644C16.3521 21.6727 15.0618 20.3823 13.47 20.3823C11.8783 20.3823 10.5879 21.6727 10.5879 23.2644C10.5879 24.8562 11.8783 26.1466 13.47 26.1466Z" stroke="black"/>
<path id="Vector_4" d="M3.88213 21.9176C5.47388 21.9176 6.76425 20.6272 6.76425 19.0354C6.76425 17.4437 5.47388 16.1533 3.88213 16.1533C2.29037 16.1533 1 17.4437 1 19.0354C1 20.6272 2.29037 21.9176 3.88213 21.9176Z" stroke="black"/>
<path id="Vector_5" d="M3.88213 10.6466C5.47388 10.6466 6.76425 9.3562 6.76425 7.76445C6.76425 6.1727 5.47388 4.88232 3.88213 4.88232C2.29037 4.88232 1 6.1727 1 7.76445C1 9.3562 2.29037 10.6466 3.88213 10.6466Z" stroke="black"/>
<path id="Vector_6" d="M13.4642 15.0441C14.7496 15.0441 15.7917 14.0021 15.7917 12.7167C15.7917 11.4312 14.7496 10.3892 13.4642 10.3892C12.1788 10.3892 11.1367 11.4312 11.1367 12.7167C11.1367 14.0021 12.1788 15.0441 13.4642 15.0441Z" stroke="black"/>
<path id="Vector_7" d="M6.36328 6.29386L10.6865 4.625" stroke="black"/>
<path id="Vector_8" d="M15.4902 5.94238L20.8781 11.8502" stroke="black"/>
<path id="Vector_9" d="M21.1708 16.1484L15.5254 21.2442" stroke="black"/>
<path id="Vector_10" d="M5.4668 10.1714L11.6817 21.0066" stroke="black"/>
<path id="Vector_11" d="M6.43164 20.3774L10.5865 22.3038" stroke="black"/>
<path id="Vector_12" d="M4.96094 16.3614L11.9087 6.30371" stroke="black"/>
<path id="Vector_13" d="M6.53711 8.89355L11.4001 11.642" stroke="black"/>
<path id="Vector_14" d="M15.7969 12.979L20.0507 13.3009" stroke="black"/>
<path id="Vector_15" d="M13.4648 15.0493L13.4698 20.3778" stroke="black"/>
</g>
</svg>
